<?xml version="1.0" encoding="iso-8859-1"?>
<!-- Generator: Adobe Illustrator 19.0.0, SVG Export Plug-In . SVG Version: 6.00 Build 0)  -->
<svg version="1.1" id="Capa_1" xmlns="http://www.w3.org/2000/svg" xmlns:xlink="http://www.w3.org/1999/xlink" x="0px" y="0px"
	 viewBox="0 0 512 512" style="enable-background:new 0 0 512 512;" xml:space="preserve">
<g>
	<path style="fill:#F5C16E;" d="M323.983,91.883c-6.736,0-12.216,5.48-12.216,12.216v3.187c0,6.736,5.48,12.216,12.216,12.216
		h87.294l-3.646-11.141c-3.225-9.855-12.355-16.477-22.72-16.477H323.983z"/>
	<path style="fill:#F5C16E;" d="M404.524,89.759l3.646,11.141c3.225,9.855,12.355,16.477,22.72,16.477h60.928
		c6.736,0,12.216-5.48,12.216-12.216v-3.187c0-6.736-5.48-12.216-12.216-12.216H404.524z"/>
</g>
<g>
	<path style="fill:#F4AA51;" d="M323.983,105.692h60.928c9.394,0,17.76,5.451,21.647,13.809h4.717l-3.646-11.141
		c-3.225-9.855-12.355-16.477-22.72-16.477h-60.927c-6.736,0-12.216,5.48-12.216,12.216v3.187c0,1.905,0.45,3.703,1.232,5.311
		C314.98,108.518,319.152,105.692,323.983,105.692z"/>
	<path style="fill:#F4AA51;" d="M491.817,102.391h-60.928c-8.947,0-16.966-4.942-21.068-12.632h-5.296l3.646,11.141
		c3.225,9.855,12.355,16.477,22.72,16.477h60.927c6.736,0,12.216-5.48,12.216-12.216v-3.187c0-2.139-0.557-4.149-1.526-5.9
		C500.423,99.836,496.414,102.391,491.817,102.391z"/>
</g>
<path style="fill:#F5C16E;" d="M100.192,117.377l3.646-11.141c3.225-9.855,12.355-16.477,22.72-16.477h60.928
	c6.736,0,12.216,5.48,12.216,12.216v3.187c0,6.736-5.48,12.216-12.216,12.216H100.192z"/>
<path style="fill:#F4AA51;" d="M187.485,89.759h-60.928c-10.364,0-19.495,6.622-22.72,16.477l-3.646,11.141h4.717
	c3.888-8.358,12.253-13.809,21.647-13.809h60.929c4.831,0,9.004,2.826,10.984,6.905c0.781-1.608,1.232-3.407,1.232-5.311v-3.187
	C199.701,95.239,194.221,89.759,187.485,89.759z"/>
<path style="fill:#F5C16E;" d="M19.651,119.502c-6.736,0-12.216-5.48-12.216-12.216v-3.187c0-6.736,5.48-12.216,12.216-12.216
	h87.294l-3.646,11.141c-3.225,9.855-12.355,16.477-22.72,16.477H19.651z"/>
<path style="fill:#F4AA51;" d="M80.579,105.692H19.651c-4.831,0-9.004-2.826-10.984-6.905c-0.782,1.608-1.232,3.407-1.232,5.311
	v3.187c0,6.736,5.48,12.216,12.216,12.216h60.928c10.364,0,19.495-6.622,22.72-16.477l3.646-11.141h-4.717
	C98.339,100.241,89.975,105.692,80.579,105.692z"/>
<path style="fill:#4B4B5B;" d="M408.432,66.39c-8.493,0-15.402-6.91-15.402-15.402s6.91-15.402,15.402-15.402
	s15.402,6.91,15.402,15.402S416.924,66.39,408.432,66.39z"/>
<polygon style="fill:#E0E0E3;" points="280.107,297.19 273.985,240.262 240.064,240.986 233.058,305.794 271.986,305.794 
	279.939,305.794 "/>
<polygon style="fill:#C5C5D6;" points="274.03,240.69 273.985,240.262 240.064,240.986 233.058,305.794 253.189,305.794 
	260.196,240.986 "/>
<path style="fill:#4B4B5B;" d="M104.1,66.39c-8.493,0-15.402-6.91-15.402-15.402s6.91-15.402,15.402-15.402
	s15.402,6.91,15.402,15.402S112.592,66.39,104.1,66.39z"/>
<path id="SVGCleanerId_0" style="fill:#4B4B5B;" d="M87.635,185.36v-22.055c0-6.582,5.355-11.936,11.936-11.936h7.993
	c6.582,0,11.936,5.355,11.936,11.936v22.055H87.635z"/>
<path style="fill:#4B4B5B;" d="M391.967,185.36v-22.055c0-6.582,5.355-11.936,11.936-11.936h7.993
	c6.582,0,11.936,5.355,11.936,11.936v22.055H391.967z"/>
<g>
	<path id="SVGCleanerId_0_1_" style="fill:#4B4B5B;" d="M87.635,185.36v-22.055c0-6.582,5.355-11.936,11.936-11.936h7.993
		c6.582,0,11.936,5.355,11.936,11.936v22.055H87.635z"/>
</g>
<g>
	<path style="fill:#404051;" d="M111.535,152.061c-1.244-0.441-2.577-0.693-3.97-0.693h-7.993c-6.582,0-11.936,5.355-11.936,11.936
		v22.055h15.934v-22.055C103.568,158.117,106.902,153.704,111.535,152.061z"/>
	<path style="fill:#404051;" d="M415.867,152.061c-1.244-0.441-2.577-0.693-3.97-0.693h-7.993c-6.582,0-11.936,5.355-11.936,11.936
		v22.055h15.934v-22.055C407.9,158.117,411.234,153.704,415.867,152.061z"/>
</g>
<path style="fill:#656572;" d="M84.448,214.041c-8.201,0-14.871-6.671-14.871-14.871s6.671-14.871,14.871-14.871h343.104
	c8.201,0,14.871,6.671,14.871,14.871s-6.671,14.871-14.871,14.871H84.448z"/>
<path style="fill:#535360;" d="M430.582,199.17H87.479c-6.484,0-11.997-4.178-14.027-9.977c-2.399,2.642-3.875,6.135-3.875,9.977
	c0,8.201,6.671,14.871,14.871,14.871h343.104c8.201,0,14.871-6.671,14.871-14.871c0-1.717-0.307-3.359-0.844-4.895
	C438.856,197.272,434.942,199.17,430.582,199.17z"/>
<path style="fill:#4B4B5B;" d="M243.829,246.439c-1.02,0-2.031-0.184-2.985-0.542h-0.001c-6.5-2.441-10.867-8.736-10.867-15.666
	v-0.514c0-9.245,7.494-16.739,16.739-16.739h18.572c9.245,0,16.739,7.494,16.739,16.739v0.514c0,6.929-4.367,13.225-10.868,15.666
	l0,0c-0.955,0.358-1.966,0.542-2.986,0.542H243.829z"/>
<path style="fill:#404051;" d="M261.556,245.898c-6.5-2.441-10.867-8.736-10.867-15.666v-0.514c0-8.884,6.925-16.13,15.668-16.685
	c-0.356-0.022-0.71-0.054-1.071-0.054h-18.572c-9.245,0-16.739,7.494-16.739,16.739v0.514c0,6.929,4.367,13.225,10.867,15.666h0.001
	c0.955,0.358,1.966,0.542,2.985,0.542h20.714C263.523,246.439,262.512,246.256,261.556,245.898L261.556,245.898z"/>
<path style="fill:#656572;" d="M157.951,394.974c-9.389,0-17.029-7.639-17.029-17.029v-56.184c0-9.389,7.639-17.029,17.029-17.029
	h124.241v90.242H157.951z"/>
<path style="fill:#535360;" d="M249.262,314.173v74.857c0,2.019,0.154,4.004,0.443,5.943h32.487v-90.242h-31.797
	C249.662,307.761,249.262,310.921,249.262,314.173z"/>
<path style="fill:#4B4B5B;" d="M140.923,336.199v-14.438c0-9.389,7.639-17.029,17.029-17.029h128.49v31.467H140.923z"/>
<path style="fill:#41414F;" d="M249.262,336.199h32.929v-31.467h-31.797c-0.734,3.03-1.132,6.189-1.132,9.441L249.262,336.199
	L249.262,336.199z"/>
<path style="fill:#656572;" d="M336.762,294.24h-47.383c-10.992,0-19.934,8.942-19.934,19.933v74.857
	c0,10.991,8.942,19.933,19.934,19.933h47.383h28.828V294.24H336.762z"/>
<path style="fill:#4B4B5B;" d="M349.504,408.962c-13.291,0-24.102-10.813-24.102-24.103v-66.515
	c0-13.291,10.813-24.103,24.102-24.103h66.515c13.291,0,24.103,10.813,24.103,24.103v66.515c0,13.291-10.814,24.103-24.103,24.103
	H349.504z"/>
<path style="fill:#7FE4F4;" d="M382.763,387.104c-19.577,0-35.504-15.927-35.504-35.503s15.927-35.503,35.504-35.503
	s35.503,15.927,35.503,35.503S402.34,387.104,382.763,387.104z"/>
<path style="fill:#2FCDDD;" d="M380.364,345.759c0-11.287,5.302-21.353,13.538-27.862c-3.505-1.162-7.249-1.799-11.139-1.799
	c-19.577,0-35.504,15.927-35.504,35.503s15.927,35.503,35.504,35.503c8.29,0,15.918-2.864,21.966-7.643
	C390.593,374.778,380.364,361.445,380.364,345.759z"/>
<path style="fill:#0FC5CE;" d="M382.763,367.549c-8.793,0-15.947-7.154-15.947-15.947s7.154-15.947,15.947-15.947
	s15.947,7.154,15.947,15.947S391.556,367.549,382.763,367.549z"/>
<path d="M382.763,394.54c23.676,0,42.939-19.263,42.939-42.939c0-23.676-19.263-42.939-42.939-42.939
	c-23.677,0-42.94,19.263-42.94,42.939C339.822,375.277,359.085,394.54,382.763,394.54z M382.763,324.596
	c14.892,0,27.005,12.115,27.005,27.005s-12.114,27.005-27.005,27.005c-14.892,0-27.006-12.115-27.006-27.005
	S367.871,324.596,382.763,324.596z"/>
<path d="M382.763,372.682c11.624,0,21.081-9.457,21.081-21.081s-9.456-21.081-21.081-21.081c-11.625,0-21.082,9.457-21.082,21.081
	S371.138,372.682,382.763,372.682z M382.763,346.454c2.838,0,5.148,2.309,5.148,5.148c0,2.838-2.309,5.148-5.148,5.148
	c-2.839,0-5.149-2.309-5.149-5.148C377.614,348.763,379.923,346.454,382.763,346.454z"/>
<path d="M492.349,84.448h-76.481V72.364c9.329-3.489,15.798-12.884,14.763-23.626c-1.023-10.62-9.502-19.251-20.104-20.44
	c-13.763-1.544-25.464,9.232-25.464,22.689c0,9.787,6.201,18.132,14.871,21.377V85.9c-4.337-2.275-9.263-3.576-14.491-3.576h-60.928
	c-10.853,0-19.651,8.799-19.651,19.651v3.187c0,10.853,8.799,19.651,19.651,19.651h75.419v19.67
	c-8.515,2.037-14.871,9.693-14.871,18.823v13.556H217.609c-3.687,0-6.848,2.584-7.633,6.187c-0.015,0.067-0.03,0.135-0.045,0.203
	c-1.086,4.893,2.593,9.544,7.606,9.544H427.33c3.239,0,6.129,2.322,6.541,5.535c0.498,3.887-2.529,7.212-6.319,7.212h-64.151
	c-4.734,0-8.396,4.154-7.801,8.852c0.008,0.068,0.017,0.135,0.025,0.202c0.484,3.933,3.838,6.88,7.802,6.88h63.638
	c11.912,0,22.094-9.141,22.759-21.033c0.637-11.405-7.35-21.095-18.022-23.163v-13.974c0-9.507-6.89-17.419-15.934-19.049v-21.488
	c4.588,2.639,9.891,4.168,15.553,4.168h60.927c10.853,0,19.651-8.799,19.651-19.651v-3.187
	C512,93.246,503.202,84.448,492.349,84.448z M399.934,108.879h-75.419c-2.05,0-3.718-1.668-3.718-3.718v-3.187
	c0-2.05,1.668-3.718,3.718-3.718h60.928c6.671,0,12.355,4.268,14.491,10.212V108.879z M407.9,44.082
	c3.807,0,6.905,3.097,6.905,6.905s-3.097,6.905-6.905,6.905c-3.807,0-6.905-3.097-6.905-6.905S404.093,44.082,407.9,44.082z
	 M415.867,176.863h-14.871v-13.557c0-1.896,1.542-3.438,3.438-3.438h7.993c1.896,0,3.438,1.542,3.438,3.438v13.557H415.867z
	 M496.066,107.286c0,2.05-1.668,3.718-3.718,3.718h-60.928c-6.825,0-12.628-4.462-14.643-10.622h75.571
	c2.05,0,3.718,1.668,3.718,3.718V107.286z"/>
<path d="M416.02,286.804H289.379c-0.978,0-1.942,0.06-2.894,0.159l-4.249-39.517c4.456-4.387,7.224-10.483,7.224-17.216v-0.514
	c0-2.893-0.512-5.667-1.448-8.241h26.027c4.076,0,7.464-3.112,7.833-7.17c0.006-0.068,0.013-0.135,0.019-0.203
	c0.436-4.597-3.215-8.561-7.834-8.561H84.67c-3.239,0-6.129-2.322-6.541-5.535c-0.498-3.887,2.529-7.212,6.319-7.212h84.623
	c5.054,0,8.814-4.732,7.601-9.639c-0.025-0.105-0.051-0.209-0.076-0.313c-0.848-3.509-3.977-5.983-7.587-5.983h-42.073v-13.557
	c0-9.13-6.356-16.786-14.871-18.823v-19.667h75.419c10.853,0,19.651-8.799,19.651-19.651v-3.187
	c0-10.853-8.799-19.651-19.651-19.651h-60.928c-5.228,0-10.154,1.3-14.491,3.576V72.363c9.328-3.488,15.798-12.883,14.763-23.625
	c-1.023-10.62-9.5-19.251-20.103-20.441c-13.762-1.545-25.464,9.232-25.464,22.691c0,9.787,6.201,18.132,14.871,21.375v12.085
	H19.651C8.799,84.448,0,93.246,0,104.099v3.187c0,10.853,8.799,19.651,19.651,19.651h60.928c5.662,0,10.964-1.53,15.553-4.168
	v21.488c-9.045,1.629-15.934,9.542-15.934,19.049v13.974c-10.673,2.068-18.66,11.759-18.022,23.164
	c0.665,11.892,10.847,21.032,22.759,21.032h139.053c-0.936,2.573-1.448,5.348-1.448,8.241v0.514c0,7.661,3.586,14.495,9.162,18.927
	l-5.204,48.137h-68.546c-13.512,0-24.464,10.953-24.464,24.464v56.185c0,13.512,10.953,24.464,24.464,24.464h0.854v57.556
	c0,12.018,9.743,21.761,21.761,21.761h37.208c12.018,0,21.761-9.743,21.761-21.761v-57.556h25.98
	c2.599,4.616,6.5,8.402,11.198,10.868v48.813c0,12.018,9.743,21.761,21.761,21.761h37.208c12.018,0,21.761-9.743,21.761-21.761
	v-45.692h58.576c17.419,0,31.539-14.12,31.539-31.539v-66.515C447.559,300.925,433.439,286.804,416.02,286.804z M112.066,108.469
	c2.136-5.944,7.82-10.212,14.491-10.212h60.928c2.05,0,3.718,1.668,3.718,3.718v3.187c0,2.05-1.668,3.718-3.718,3.718h-75.419
	V108.469z M80.579,111.004H19.651c-2.05,0-3.718-1.668-3.718-3.718v-3.187c0-2.05,1.668-3.718,3.718-3.718h75.572
	C93.207,106.541,87.404,111.004,80.579,111.004z M104.1,44.082c3.807,0,6.905,3.097,6.905,6.905s-3.097,6.905-6.905,6.905
	c-3.807,0-6.905-3.097-6.905-6.905S100.293,44.082,104.1,44.082z M96.133,163.305c0-1.896,1.542-3.438,3.438-3.438h7.993
	c1.896,0,3.438,1.542,3.438,3.438v13.557H96.132v-13.557H96.133z M223.602,459.965c0,3.213-2.614,5.827-5.827,5.827h-37.208
	c-3.213,0-5.827-2.614-5.827-5.827v-57.556h48.863V459.965z M262.009,386.476h-22.474v-18.941c0-4.4-3.567-7.967-7.967-7.967
	c-4.4,0-7.967,3.567-7.967,7.967v18.941h-48.863v-19.045c0-4.4-3.567-7.967-7.967-7.967s-7.967,3.567-7.967,7.967v19.045h-0.854
	c-4.704,0-8.531-3.827-8.531-8.531v-34.31h112.589V386.476L262.009,386.476z M262.009,327.701H149.421v-5.94
	c0-4.704,3.827-8.531,8.531-8.531H262.01v14.471H262.009z M267.857,297.296h-25.332l4.637-42.89h18.125
	c0.561,0,1.115-0.027,1.667-0.064l4.237,39.414C269.979,294.838,268.861,296.019,267.857,297.296z M273.527,230.232
	c0,3.529-2.233,6.537-5.357,7.71h-24.341c-3.124-1.173-5.357-4.181-5.357-7.71v-0.514c0-4.544,3.697-8.241,8.241-8.241h18.572
	c4.543,0,8.241,3.697,8.241,8.241v0.514H273.527z M277.943,389.029v-74.857c0-6.305,5.13-11.435,11.436-11.435h32.736
	c-2.634,4.606-4.149,9.93-4.149,15.605v66.515c0,5.676,1.515,11,4.149,15.605h-32.736
	C283.072,400.464,277.943,395.335,277.943,389.029z M341.51,462.089c0,3.213-2.614,5.827-5.827,5.827h-37.207
	c-3.213,0-5.827-2.614-5.827-5.827v-45.691h48.863v45.691H341.51z M431.626,384.859c0,8.605-7.001,15.605-15.605,15.605h-66.515
	c-8.605,0-15.604-7-15.604-15.605v-66.515c0-8.605,7-15.605,15.604-15.605h66.515c8.605,0,15.605,7,15.605,15.605V384.859z"/>
<circle cx="299.021" cy="323.452" r="6.373"/>
<circle cx="299.021" cy="352.132" r="6.373"/>
<circle cx="299.021" cy="380.813" r="6.373"/>
<g>
</g>
<g>
</g>
<g>
</g>
<g>
</g>
<g>
</g>
<g>
</g>
<g>
</g>
<g>
</g>
<g>
</g>
<g>
</g>
<g>
</g>
<g>
</g>
<g>
</g>
<g>
</g>
<g>
</g>
</svg>
