<?xml version="1.0" encoding="iso-8859-1"?>
<!-- Generator: Adobe Illustrator 19.0.0, SVG Export Plug-In . SVG Version: 6.00 Build 0)  -->
<svg version="1.1" id="Capa_1" xmlns="http://www.w3.org/2000/svg" xmlns:xlink="http://www.w3.org/1999/xlink" x="0px" y="0px"
	 viewBox="0 0 512 512" style="enable-background:new 0 0 512 512;" xml:space="preserve">
<path style="fill:#E0E0E3;" d="M51.928,400c-10.713,0-19.428-8.716-19.428-19.429V134.429C32.5,123.716,41.215,115,51.928,115
	h400.144c10.713,0,19.428,8.716,19.428,19.429v246.143c0,10.713-8.715,19.429-19.428,19.429H51.928V400z"/>
<path style="fill:#C7C5CC;" d="M347,314.5c-40.343,0-74.87-35.636-87.842-50.958c-3.944-4.66-3.944-11.424-0.001-16.083
	C272.13,232.136,306.657,196.5,347,196.5s74.87,35.636,87.842,50.958c3.944,4.66,3.944,11.424,0.001,16.083
	C421.87,278.864,387.343,314.5,347,314.5z"/>
<path style="fill:#25D887;" d="M347,314.406c-32.481,0-58.906-26.425-58.906-58.906s26.425-58.906,58.906-58.906
	s58.906,26.425,58.906,58.906S379.481,314.406,347,314.406z"/>
<path style="fill:#08BC62;" d="M339.587,252c0-21.811,11.925-40.877,29.588-51.059c-6.85-2.794-14.333-4.347-22.175-4.347
	c-32.481,0-58.906,26.425-58.906,58.906s26.425,58.906,58.906,58.906c10.67,0,20.677-2.866,29.319-7.847
	C354.799,297.78,339.587,276.639,339.587,252z"/>
<path style="fill:#05A54A;" d="M347,289.945c-18.994,0-34.446-15.452-34.446-34.445s15.452-34.445,34.446-34.445
	s34.446,15.452,34.446,34.445S365.994,289.945,347,289.945z"/>
<path style="fill:#06933F;" d="M347,221.055c-11.259,0-21.272,5.43-27.561,13.808c3.951-1.583,8.257-2.463,12.768-2.463
	c18.994,0,34.446,15.452,34.446,34.445c0,7.735-2.564,14.881-6.884,20.637c12.689-5.084,21.678-17.499,21.678-31.982
	C381.446,236.507,365.994,221.055,347,221.055z"/>
<path style="fill:#7FE4F4;" d="M80.4,274c-7.665,0-13.9-6.235-13.9-13.9V156.9c0-7.665,6.235-13.9,13.9-13.9h103.2
	c7.665,0,13.9,6.235,13.9,13.9v103.2c0,7.665-6.235,13.9-13.9,13.9H80.4z"/>
<path style="fill:#2FCCD3;" d="M130.319,260.1V156.9c0-7.665,6.235-13.9,13.9-13.9H80.4c-7.665,0-13.9,6.235-13.9,13.9v103.2
	c0,7.665,6.235,13.9,13.9,13.9h63.819C136.554,274,130.319,267.765,130.319,260.1z"/>
<g>
	<path style="fill:#F6B545;" d="M132,206c-17.369,0-31.5-14.131-31.5-31.5S114.631,143,132,143s31.5,14.131,31.5,31.5
		S149.369,206,132,206z"/>
	<path style="fill:#F6B545;" d="M87.5,274v-27.819c0-22.707,18.474-41.181,41.181-41.181h6.639
		c22.707,0,41.181,18.474,41.181,41.181V274H87.5z"/>
</g>
<g>
	<path style="fill:#E29524;" d="M124.962,174.5c0-13.034,7.957-24.244,19.269-29.028C140.469,143.881,136.335,143,132,143
		c-17.369,0-31.5,14.131-31.5,31.5S114.631,206,132,206c4.335,0,8.469-0.881,12.231-2.472
		C132.919,198.744,124.962,187.534,124.962,174.5z"/>
	<path style="fill:#E29524;" d="M144.231,205.982c-2.872-0.637-5.851-0.982-8.912-0.982h-6.639
		c-22.707,0-41.181,18.474-41.181,41.181V274h24.462v-27.819C111.962,226.534,125.795,210.067,144.231,205.982z"/>
</g>
<g>
	<path style="fill:#D6D6D8;" d="M323.998,342.303c-1.491-3.865-5.831-5.79-9.697-4.298c-3.864,1.49-5.789,5.831-4.298,9.696
		L330.175,400h16.077L323.998,342.303z"/>
	<path style="fill:#D6D6D8;" d="M307.518,177.684c1.144,2.984,3.988,4.817,7.004,4.817c0.893,0,1.8-0.16,2.683-0.499
		c3.868-1.482,5.801-5.819,4.318-9.688L299.553,115h-16.064L307.518,177.684z"/>
</g>
<path style="fill:#4DD4E2;" d="M424.5,499.345v-43.689c0-3.123,2.532-5.655,5.655-5.655h43.689c3.123,0,5.655,2.532,5.655,5.655
	v43.689c0,3.123-2.532,5.655-5.655,5.655h-43.689C427.032,505,424.5,502.468,424.5,499.345z"/>
<path style="fill:#ED2E4E;" d="M207,82c-20.678,0-37.5-16.822-37.5-37.5S186.322,7,207,7s37.5,16.822,37.5,37.5S227.678,82,207,82z"
	/>
<path d="M440.185,268.064c6.164-7.28,6.164-17.849,0-25.129C426.583,226.869,390.274,189.5,347,189.5s-79.583,37.369-93.185,53.436
	c-6.164,7.28-6.164,17.849,0,25.129C267.417,284.131,303.726,321.5,347,321.5S426.583,284.131,440.185,268.064z M347,204.594
	c28.07,0,50.906,22.837,50.906,50.906S375.07,306.406,347,306.406s-50.906-22.837-50.906-50.906S318.93,204.594,347,204.594z
	 M428.736,252.627c1.409,1.665,1.409,4.081,0,5.746c-4.36,5.149-11.293,12.729-20.07,20.357c2.732-7.229,4.24-15.056,4.24-23.23
	s-1.507-16-4.24-23.23C417.443,239.898,424.376,247.478,428.736,252.627z M265.264,258.373c-1.409-1.665-1.409-4.081,0-5.746
	c4.36-5.149,11.293-12.729,20.07-20.357c-2.732,7.229-4.24,15.056-4.24,23.23s1.507,16,4.24,23.23
	C276.557,271.102,269.624,263.522,265.264,258.373z"/>
<path d="M347,296.945c22.854,0,41.446-18.593,41.446-41.445S369.854,214.055,347,214.055s-41.446,18.593-41.446,41.445
	S324.146,296.945,347,296.945z M347,229.055c14.582,0,26.446,11.863,26.446,26.445S361.582,281.945,347,281.945
	s-26.446-11.863-26.446-26.445S332.418,229.055,347,229.055z"/>
<path d="M183.6,136H80.4c-11.524,0-20.9,9.376-20.9,20.9v103.2c0,11.524,9.375,20.9,20.9,20.9H88h88h7.6
	c11.524,0,20.9-9.376,20.9-20.9V156.9C204.5,145.376,195.125,136,183.6,136z M155.5,174.5c0,12.958-10.542,23.5-23.5,23.5
	s-23.5-10.542-23.5-23.5S119.042,151,132,151S155.5,161.542,155.5,174.5z M74.5,260.1V156.9c0-3.254,2.646-5.9,5.9-5.9h21.136
	c-5.031,6.507-8.036,14.657-8.036,23.5c0,11.497,5.072,21.825,13.088,28.886C91.108,211.41,80.5,227.574,80.5,246.181V266h-0.1
	C77.146,266,74.5,263.354,74.5,260.1z M95.5,266v-19.819c0-18.296,14.885-33.181,33.181-33.181h6.639
	c18.296,0,33.181,14.885,33.181,33.181V266H95.5z M189.5,260.1c0,3.254-2.646,5.9-5.9,5.9h-0.1v-19.819
	c0-18.606-10.608-34.771-26.088-42.795c8.016-7.061,13.088-17.389,13.088-28.886c0-8.843-3.004-16.993-8.036-23.5H183.6
	c3.253,0,5.9,2.646,5.9,5.9V260.1z"/>
<path d="M142,303H70c-4.142,0-7.5,3.357-7.5,7.5s3.358,7.5,7.5,7.5h72c4.142,0,7.5-3.357,7.5-7.5S146.142,303,142,303z"/>
<path d="M197,303h-34c-4.142,0-7.5,3.357-7.5,7.5s3.358,7.5,7.5,7.5h34c4.142,0,7.5-3.357,7.5-7.5S201.142,303,197,303z"/>
<path d="M142,330H70c-4.142,0-7.5,3.357-7.5,7.5s3.358,7.5,7.5,7.5h72c4.142,0,7.5-3.357,7.5-7.5S146.142,330,142,330z"/>
<path d="M197,330h-34c-4.142,0-7.5,3.357-7.5,7.5s3.358,7.5,7.5,7.5h34c4.142,0,7.5-3.357,7.5-7.5S201.142,330,197,330z"/>
<path d="M142,357H70c-4.142,0-7.5,3.357-7.5,7.5s3.358,7.5,7.5,7.5h72c4.142,0,7.5-3.357,7.5-7.5S146.142,357,142,357z"/>
<path d="M197,357h-34c-4.142,0-7.5,3.357-7.5,7.5s3.358,7.5,7.5,7.5h34c4.142,0,7.5-3.357,7.5-7.5S201.142,357,197,357z"/>
<path d="M479,443h-54c-4.142,0-7.5,3.358-7.5,7.5V470h-20.354l-24.3-63h79.226c14.596,0,26.428-11.832,26.428-26.428V134.428
	c0-14.596-11.832-26.428-26.428-26.428h-40.667c-4.142,0-7.5,3.358-7.5,7.5l0,0c0,4.142,3.358,7.5,7.5,7.5h40.667
	c6.312,0,11.428,5.117,11.428,11.428v246.143c0,6.312-5.117,11.429-11.429,11.429H367.06l-21.949-56.904
	c-1.478-3.831-5.719-6.034-9.593-4.673c-4.009,1.409-6.034,5.839-4.516,9.776L350.983,392H155.384c-4.142,0-7.5,3.358-7.5,7.5l0,0
	c0,4.142,3.358,7.5,7.5,7.5h201.384l28.234,73.199c1.116,2.893,3.897,4.801,6.998,4.801h25.5v19.5c0,4.142,3.358,7.5,7.5,7.5h54
	c4.142,0,7.5-3.358,7.5-7.5v-54C486.5,446.358,483.142,443,479,443z M471.5,497h-39v-39h39V497z"/>
<path d="M40.5,380.572V134.429c0-6.312,5.117-11.429,11.429-11.429H310.06l16.938,44.185c1.144,2.984,3.988,4.817,7.004,4.817
	c1.146,0,2.317-0.264,3.428-0.831c3.457-1.765,4.86-6,3.471-9.625L326.124,123h36.48c4.142,0,7.5-3.358,7.5-7.5l0,0
	c0-4.142-3.358-7.5-7.5-7.5h-42.23l-25.371-66.185C293.891,38.915,291.106,37,288,37h-37.145
	C247.09,14.923,227.02-1.668,203.511,0.134c-22.334,1.712-40.101,20.208-40.976,42.591C161.544,68.067,181.873,89,207,89
	c21.981,0,40.278-16.023,43.855-37h31.988l21.467,56H51.928C37.332,108,25.5,119.832,25.5,134.428v246.143
	C25.5,395.167,37.333,407,51.929,407h54.654c4.142,0,7.5-3.358,7.5-7.5l0,0c0-4.142-3.358-7.5-7.5-7.5H51.928
	C45.617,392,40.5,386.883,40.5,380.572z M207,74c-16.267,0-29.5-13.233-29.5-29.5S190.733,15,207,15s29.5,13.233,29.5,29.5
	S223.267,74,207,74z"/>
<g>
</g>
<g>
</g>
<g>
</g>
<g>
</g>
<g>
</g>
<g>
</g>
<g>
</g>
<g>
</g>
<g>
</g>
<g>
</g>
<g>
</g>
<g>
</g>
<g>
</g>
<g>
</g>
<g>
</g>
</svg>
