<?xml version="1.0" encoding="iso-8859-1"?>
<!-- Generator: Adobe Illustrator 19.0.0, SVG Export Plug-In . SVG Version: 6.00 Build 0)  -->
<svg version="1.1" id="Capa_1" xmlns="http://www.w3.org/2000/svg" xmlns:xlink="http://www.w3.org/1999/xlink" x="0px" y="0px"
	 viewBox="0 0 512 512" style="enable-background:new 0 0 512 512;" xml:space="preserve">
<path style="fill:#25D887;" d="M339.559,36.921V19.395c0-2.068,1.677-3.746,3.746-3.746h17.525c2.068,0,3.746,1.677,3.746,3.746
	V36.92c0,2.068-1.677,3.746-3.746,3.746h-17.525C341.236,40.667,339.559,38.99,339.559,36.921z"/>
<path style="fill:#2CC7CE;" d="M440.631,117.721c26.762,0,48.534-21.772,48.534-48.534s-21.772-48.534-48.534-48.534h-38.527v97.069
	H440.631z"/>
<path style="fill:#7FE4F4;" d="M440.631,117.721l-156.8-1.001h-55.662l-156.8,1.001c-26.762,0-48.534-21.772-48.534-48.534v339.74
	c0,26.762,21.772,48.534,48.534,48.534h156.8h55.662h156.8c26.762,0,48.534-21.772,48.534-48.534V69.187
	C489.165,95.949,467.392,117.721,440.631,117.721z"/>
<path style="fill:#1EBABA;" d="M489.165,69.187v340.198c0-26.762-21.772-48.534-48.534-48.534h-38.527V117.721h38.527
	C467.392,117.721,489.165,95.949,489.165,69.187z"/>
<path style="fill:#2CC7CE;" d="M71.369,117.721c-26.762,0-48.534-21.772-48.534-48.534s21.772-48.534,48.534-48.534h38.527v97.069
	H71.369z"/>
<g>
	<path style="fill:#1EBABA;" d="M22.835,69.187v340.198c0-26.762,21.772-48.534,48.534-48.534h38.527V117.721H71.369
		C44.608,117.721,22.835,95.949,22.835,69.187z"/>
	<path style="fill:#1EBABA;" d="M153.427,366.637c-7.449,0-13.51-6.06-13.51-13.51s6.06-13.51,13.51-13.51s13.51,6.06,13.51,13.51
		S160.877,366.637,153.427,366.637z"/>
</g>
<path style="fill:#25D887;" d="M181.533,28.277V10.751c0-2.068,1.677-3.746,3.746-3.746h17.525c2.068,0,3.746,1.677,3.746,3.746
	v17.525c0,2.068-1.677,3.746-3.746,3.746h-17.525C183.211,32.023,181.533,30.345,181.533,28.277z"/>
<path style="fill:#1EBABA;" d="M335.556,363.158v-17.538c0-2.065,1.674-3.74,3.74-3.74h17.538c2.065,0,3.74,1.674,3.74,3.74v17.538
	c0,2.065-1.674,3.74-3.74,3.74h-17.538C337.23,366.897,335.556,365.223,335.556,363.158z"/>
<path style="fill:#25D887;" d="M297.529,133.101v-17.75c0-2.007,1.627-3.634,3.634-3.634h17.75c2.007,0,3.634,1.627,3.634,3.634
	v17.75c0,2.007-1.627,3.634-3.634,3.634h-17.75C299.157,136.735,297.529,135.108,297.529,133.101z"/>
<path d="M322.047,104.712H298.03c-4.146,0-7.505,3.36-7.505,7.505v24.017c0,4.145,3.359,7.505,7.505,7.505h24.017
	c4.146,0,7.505-3.36,7.505-7.505v-24.017C329.552,108.072,326.193,104.712,322.047,104.712z M314.541,128.729h-9.006v-9.006h9.006
	V128.729z"/>
<path style="fill:#086987;" d="M319.116,384.91h-28.12l-71.817,0.934h-37.653l-0.867,0.194
	c-20.998,4.715-36.239,23.781-36.239,45.333v63.605c0,5.524,4.494,10.018,10.018,10.018h201.12c5.524,0,10.018-4.494,10.018-10.018
	v-63.605C365.577,405.753,344.735,384.91,319.116,384.91z"/>
<path style="fill:#066075;" d="M246.641,385.487l-27.461,0.357h-37.653l-0.867,0.194c-20.998,4.715-36.239,23.781-36.239,45.333
	v63.605c0,5.524,4.494,10.018,10.018,10.018h60.988c-5.524,0-10.018-4.494-10.018-10.018v-63.605
	c0-21.553,15.241-40.618,36.239-45.333l0.867-0.194h4.121C246.634,385.725,246.638,385.606,246.641,385.487z"/>
<path style="fill:#184B56;" d="M319.116,384.91h-28.12l-71.818,0.934h-37.652l-0.867,0.194c-20.998,4.714-36.24,23.781-36.24,45.333
	v26.089h221.156v-26.089C365.577,405.753,344.735,384.91,319.116,384.91z"/>
<path style="fill:#104149;" d="M205.409,431.372c0-21.553,15.241-40.618,36.239-45.333l0.867-0.194h4.121
	c-0.001-0.119,0.003-0.238,0.005-0.357l-14.543,0.189l-12.918,0.168l0,0h-37.652l-0.867,0.194
	c-19.686,4.42-34.312,21.453-36.063,41.324c-0.117,1.325-0.176,2.662-0.176,4.009v26.089h60.988V431.372z"/>
<path style="fill:#B79480;" d="M218.974,382.866v-34.438h73.052v34.438c0,20.172-16.354,36.526-36.526,36.526l0,0
	C235.327,419.392,218.974,403.038,218.974,382.866z"/>
<path style="fill:#B28772;" d="M252.998,382.866v-34.438h-34.024v34.438c0,20.172,16.354,36.526,36.526,36.526l0,0
	c6.144,0,11.93-1.524,17.012-4.204C260.91,409.068,252.998,396.894,252.998,382.866z"/>
<path style="fill:#F79548;" d="M344.485,111.595h-5.861v-9.911c0-19.297-15.699-35.062-34.996-35.143l-30.115-0.126l-37.026,0.005
	h-17.162c-13.244,0-25.37,4.557-34.144,12.831c-8.786,8.286-13.677,19.757-13.803,32.345h-5.863
	c-13.707,0-24.859,11.152-24.859,24.859v91.805h228.687v-91.805C369.343,122.747,358.191,111.595,344.485,111.595z"/>
<path style="fill:#F27927;" d="M220.553,111.595h5.863c0.126-12.588,5.017-24.059,13.803-32.345
	c8.774-8.275,20.9-12.831,34.144-12.831h0.312l-1.163-0.005l-37.026,0.005h-17.162c-13.244,0-25.37,4.557-34.144,12.831
	c-8.786,8.286-13.677,19.757-13.803,32.345h-5.863c-13.707,0-24.859,11.152-24.859,24.859v91.805h55.039v-91.805
	C195.694,122.747,206.846,111.595,220.553,111.595z"/>
<path style="fill:#875736;" d="M362.307,119.149l-2.358-2.429h-86.436h-37.026h-86.436l-2.358,2.429
	c-4.537,4.672-7.036,10.819-7.036,17.304v91.805h228.687v-91.805C369.343,129.967,366.844,123.822,362.307,119.149z"/>
<path style="fill:#7C4E2E;" d="M205.459,116.721H150.42c-0.849,0.65-1.657,1.352-2.415,2.105l-0.308,0.318
	c-0.003,0.003-0.006,0.006-0.009,0.009c-0.278,0.286-0.547,0.578-0.811,0.876c-0.014,0.016-0.027,0.031-0.041,0.047
	c-0.245,0.278-0.482,0.562-0.715,0.85c-0.037,0.047-0.074,0.094-0.111,0.141c-0.203,0.256-0.401,0.516-0.593,0.78
	c-0.061,0.084-0.121,0.17-0.181,0.255c-0.163,0.229-0.323,0.46-0.478,0.694c-0.081,0.122-0.158,0.245-0.237,0.369
	c-0.129,0.203-0.257,0.406-0.38,0.612c-0.093,0.157-0.183,0.316-0.273,0.475c-0.102,0.179-0.203,0.358-0.3,0.54
	c-0.099,0.186-0.194,0.375-0.289,0.564c-0.081,0.161-0.163,0.323-0.24,0.486c-0.099,0.208-0.193,0.42-0.286,0.631
	c-0.066,0.151-0.134,0.301-0.197,0.453c-0.093,0.223-0.18,0.448-0.266,0.674c-0.056,0.147-0.114,0.294-0.168,0.443
	c-0.083,0.231-0.16,0.465-0.237,0.699c-0.049,0.148-0.099,0.296-0.144,0.445c-0.072,0.234-0.137,0.471-0.202,0.708
	c-0.042,0.154-0.086,0.307-0.125,0.461c-0.059,0.235-0.112,0.472-0.164,0.711c-0.035,0.16-0.074,0.318-0.106,0.479
	c-0.048,0.237-0.088,0.477-0.128,0.718c-0.028,0.163-0.059,0.325-0.083,0.488c-0.037,0.244-0.065,0.491-0.094,0.739
	c-0.019,0.161-0.042,0.321-0.058,0.483c-0.027,0.269-0.044,0.541-0.062,0.813c-0.009,0.14-0.023,0.28-0.03,0.42
	c-0.02,0.412-0.032,0.828-0.032,1.246v91.805h55.039v-91.805C195.694,128.42,199.529,121.268,205.459,116.721z"/>
<path style="fill:#B79480;" d="M154.326,264.703c-13.728,0-24.896-11.168-24.896-24.895c0-13.728,11.168-24.896,24.896-24.896h31.58
	v49.79H154.326z"/>
<rect x="157.671" y="214.912" style="fill:#AD806D;" width="22.256" height="49.79"/>
<path style="fill:#B79480;" d="M357.675,264.703c13.728,0,24.896-11.168,24.896-24.895c0-13.728-11.168-24.896-24.896-24.896h-31.58
	v49.79H357.675z"/>
<rect x="329.313" y="214.912" style="fill:#AD806D;" width="22.256" height="49.79"/>
<path style="fill:#B79480;" d="M254.999,362.83c-46.111,0-83.624-37.514-83.624-83.623v-38.398h167.247v38.398
	C338.623,325.316,301.109,362.83,254.999,362.83z"/>
<path style="fill:#B28772;" d="M213.905,279.206v-38.398h-42.53v38.398c0,46.111,37.514,83.623,83.624,83.623
	c7.347,0,14.471-0.961,21.265-2.749C240.421,350.649,213.905,317.97,213.905,279.206z"/>
<path style="fill:#6D1326;" d="M256,338.878c-10.208,0-18.513-8.305-18.513-18.513v-4.003c0-10.208,8.305-18.513,18.513-18.513
	c10.208,0,18.513,8.305,18.513,18.513v4.003C274.513,330.573,266.208,338.878,256,338.878z"/>
<path style="fill:#630F23;" d="M256,297.849c-9.035,0-16.567,6.51-18.182,15.083c3.359-3.411,8.025-5.533,13.18-5.533
	c10.208,0,18.513,8.305,18.513,18.513v4.003c0,1.173-0.122,2.317-0.331,3.43c3.293-3.344,5.333-7.927,5.333-12.98v-4.003
	C274.513,306.153,266.208,297.849,256,297.849z"/>
<path style="fill:#4B4B5B;" d="M235.486,163.754V61.673c0-4.962,4.036-8.997,8.997-8.997h21.033c4.962,0,8.997,4.036,8.997,8.997
	v102.081H235.486z"/>
<g>
	<rect x="235.487" y="116.723" style="fill:#2A2A3D;" width="39.028" height="47.033"/>
	<path style="fill:#2A2A3D;" d="M166.149,241.809c-13.637,0-24.73-11.094-24.73-24.73v-29.594c0-13.637,11.094-24.73,24.73-24.73
		h177.699c12.173,0,22.43,8.726,24.389,20.749l0.104,0.639v34.528l0.106,1.001l-0.145,0.955
		c-1.748,12.077-12.262,21.183-24.455,21.183H166.149z"/>
</g>
<path style="fill:#222233;" d="M238.554,217.078v-29.594c0-13.637,11.094-24.73,24.73-24.73H166.15
	c-13.637,0-24.73,11.094-24.73,24.73v29.594c0,13.637,11.094,24.73,24.73,24.73h97.134
	C249.648,241.809,238.554,230.715,238.554,217.078z"/>
<path style="fill:#749654;" d="M180.447,216.791c-7.725,0-14.01-6.284-14.01-14.01s6.284-14.01,14.01-14.01h149.105
	c7.725,0,14.01,6.284,14.01,14.01s-6.284,14.01-14.01,14.01H180.447z"/>
<path style="fill:#5F7F3D;" d="M329.552,188.771H180.447c-5.877,0-10.912,3.642-12.988,8.783H312.04
	c7.725,0,14.01,6.284,14.01,14.01c0,1.848-0.368,3.61-1.022,5.227h4.524c7.725,0,14.01-6.284,14.01-14.01
	S337.277,188.771,329.552,188.771z"/>
<path d="M340.059,47.672h24.017c4.146,0,7.505-3.36,7.505-7.505V16.149c0-4.145-3.359-7.505-7.505-7.505h-24.017
	c-4.146,0-7.505,3.36-7.505,7.505v24.017C332.554,44.311,335.915,47.672,340.059,47.672z M347.565,23.655h9.006v9.006h-9.006V23.655
	z"/>
<path d="M182.034,39.028h24.017c4.146,0,7.505-3.36,7.505-7.505V7.505c0-4.145-3.359-7.505-7.505-7.505h-24.017
	c-4.146,0-7.505,3.36-7.505,7.505v24.017C174.528,35.667,177.888,39.028,182.034,39.028z M189.539,15.011h9.006v9.006h-9.006V15.011
	z"/>
<path d="M360.074,334.875h-24.017c-4.146,0-7.505,3.36-7.505,7.505v24.017c0,4.145,3.359,7.505,7.505,7.505h24.017
	c4.146,0,7.505-3.36,7.505-7.505V342.38C367.579,338.235,364.22,334.875,360.074,334.875z M352.568,358.892h-9.006v-9.006h9.006
	V358.892z"/>
<path d="M173.942,353.128c0-11.312-9.203-20.514-20.515-20.514s-20.514,9.203-20.514,20.514s9.202,20.514,20.514,20.514
	S173.942,364.44,173.942,353.128z M147.924,353.128c0-3.035,2.469-5.504,5.504-5.504c3.035,0,5.504,2.469,5.504,5.504
	s-2.469,5.504-5.504,5.504C150.392,358.632,147.924,356.163,147.924,353.128z"/>
<path d="M256,290.844c-14.071,0-25.518,11.447-25.518,25.518v4.003c0,14.071,11.447,25.518,25.518,25.518
	c14.071,0,25.518-11.447,25.518-25.518v-4.003C281.518,302.292,270.071,290.844,256,290.844z M266.507,320.365
	c0,5.794-4.713,10.507-10.507,10.507c-5.794,0-10.507-4.713-10.507-10.507v-4.003c0-5.794,4.713-10.507,10.507-10.507
	c5.794,0,10.507,4.713,10.507,10.507V320.365z"/>
<path d="M160.432,202.781c0,11.588,9.427,21.015,21.015,21.015h149.105c11.587,0,21.015-9.427,21.015-21.015
	s-9.428-21.015-21.015-21.015H181.447C169.86,181.767,160.432,191.194,160.432,202.781z M181.447,196.777h149.105
	c3.311,0,6.004,2.693,6.004,6.004c0,3.311-2.693,6.004-6.004,6.004H181.447c-3.311,0-6.004-2.693-6.004-6.004
	C175.443,199.47,178.136,196.777,181.447,196.777z"/>
<path d="M440.631,13.648h-38.027c-4.146,0-7.505,3.36-7.505,7.505v88.563h-33.308c-4.687-3.044-10.219-4.894-16.162-5.106v-2.926
	c0-23.143-18.827-42.051-41.971-42.148l-22.314-0.094c-1.092-7.768-7.763-13.772-15.828-13.772h-21.033
	c-8.055,0-14.72,5.988-15.824,13.744h-9.335c-15.004,0-28.811,5.175-38.88,14.572c-8.596,8.023-13.989,18.7-15.58,30.61
	c-6.128,0.124-11.832,1.992-16.649,5.12h-31.314V21.153c0-4.145-3.359-7.505-7.505-7.505H71.369
	c-30.625,0-55.539,24.915-55.539,55.539v339.74c0,30.625,24.915,55.539,55.539,55.539h66.047v30.511
	c0,9.387,7.636,17.023,17.023,17.023h201.12c9.387,0,17.023-7.636,17.023-17.023v-30.511h68.048
	c30.625,0,55.539-24.915,55.539-55.539V69.187C496.17,38.563,471.255,13.648,440.631,13.648z M371.78,233.833
	c0.847,2.029,1.303,4.236,1.303,6.522c0,9.313-7.576,16.889-16.89,16.889h-10.565v-8.45
	C356.654,248.527,366.297,242.608,371.78,233.833z M281.518,74.454l22.077,0.093c14.901,0.063,27.023,12.237,27.023,27.137v8.032
	h-49.099V74.454H281.518z M281.518,124.726h75.045c2.949,3.036,4.774,7.17,4.774,11.727v23.924
	c-4.808-2.935-10.454-4.629-16.489-4.629h-63.331V124.726z M243.491,61.673c0-0.546,0.445-0.992,0.992-0.992h21.033
	c0.547,0,0.992,0.445,0.992,0.992v48.043h-23.016V61.673z M243.491,124.726h23.016v31.022h-23.016V124.726z M344.849,170.759
	c8.303,0,15.194,6.088,16.489,14.032v33.88c0,0.273,0.016,0.542,0.045,0.808c-1.171,8.086-8.128,14.325-16.533,14.325h-177.7
	c-9.223,0-16.725-7.503-16.725-16.725v-29.594c0-9.223,7.503-16.725,16.725-16.725h177.699V170.759z M254.999,354.824
	c-41.696,0-75.618-33.922-75.618-75.617v-30.392h151.236v30.392C330.618,320.902,296.695,354.824,254.999,354.824z M283.519,365.233
	v16.725c0,8.801-7.16,15.962-15.961,15.962h-25.117c-8.801,0-15.962-7.16-15.962-15.962v-16.725
	c8.972,2.982,18.56,4.602,28.52,4.602C264.959,369.834,274.548,368.215,283.519,365.233z M219.324,74.425h9.156v35.291h-49.025
	C180.632,89.127,197.03,74.425,219.324,74.425z M148.661,136.453c0-4.557,1.825-8.69,4.774-11.727h75.045v31.022h-61.33
	c-6.895,0-13.278,2.218-18.489,5.966V136.453z M139.144,231.944c4.927,9.245,14.281,15.786,25.226,16.742v8.559h-10.565
	c-9.313,0-16.889-7.576-16.889-16.889C136.916,237.332,137.704,234.453,139.144,231.944z M71.369,28.658h30.522v81.057H71.369
	c-22.348,0-40.529-18.181-40.529-40.529S49.022,28.658,71.369,28.658z M30.841,107.104c10.142,10.834,24.553,17.622,40.529,17.622
	h30.522v228.662H71.369c-15.975,0-30.386,6.789-40.529,17.622V107.104z M137.416,431.372v18.084H71.369
	c-22.348,0-40.529-18.181-40.529-40.529c0-22.348,18.181-40.529,40.529-40.529h38.027c4.146,0,7.505-3.36,7.505-7.505V124.726
	h18.994c-1.444,3.633-2.246,7.586-2.246,11.727v79.173c-7.421,6.018-11.745,14.98-11.745,24.729c0,17.589,14.31,31.9,31.9,31.9
	h10.565v6.951c0,34.206,19.051,64.044,47.098,79.468v20.164h-29.849c-0.505,0-1.01,0.051-1.504,0.152
	C155.374,384.055,137.416,406.083,137.416,431.372z M183.922,496.989h-29.483c-1.11,0-2.012-0.903-2.012-2.012v-30.511h31.495
	L183.922,496.989L183.922,496.989z M357.572,494.977c0,1.11-0.903,2.012-2.012,2.012h-27.482v-32.523h29.495V494.977z
	 M357.572,449.456h-29.495v-4.689c0-4.11-3.167-7.693-7.275-7.817c-4.25-0.127-7.736,3.28-7.736,7.502v5.004h-17.543
	c-4.145,0-7.505,3.36-7.505,7.505l0,0c0,4.145,3.36,7.505,7.505,7.505h17.543v32.523H198.933v-32.523h47.754
	c4.145,0,7.505-3.36,7.505-7.505l0,0c0-4.145-3.36-7.505-7.505-7.505h-47.754v-4.689c0-4.11-3.166-7.693-7.274-7.817
	c-4.25-0.128-7.736,3.28-7.736,7.502v5.004h-31.495v-18.084c0-17.948,12.568-33.611,29.987-37.523h31.432
	c4.672,11.193,15.728,19.08,28.595,19.08h25.117c13.221,0,24.527-8.33,28.963-20.014h22.595c21.239,0,38.456,17.217,38.456,38.456
	v18.084H357.572z M440.631,449.456h-68.048v-18.084c0-29.482-23.985-53.467-53.467-53.467H298.53v-19.231
	c28.047-15.425,47.097-45.262,47.097-79.468v-6.951h10.565c17.589,0,31.901-14.31,31.901-31.9c0-9.62-4.237-18.51-11.508-24.532
	v-28.339c0-1.292-0.087-2.564-0.237-3.816v-47.215c0-4.14-0.801-8.095-2.244-11.727h20.994v236.167c0,4.145,3.359,7.505,7.505,7.505
	h38.027c22.348,0,40.529,18.181,40.529,40.529C481.159,431.275,462.978,449.456,440.631,449.456z M481.159,371.01
	c-10.142-10.834-24.553-17.622-40.529-17.622h-30.522V124.726h30.522c15.975,0,30.386-6.789,40.529-17.622V371.01z M440.631,109.716
	h-30.522V28.658h30.522c22.348,0,40.529,18.181,40.529,40.529S462.978,109.716,440.631,109.716z"/>
<g>
</g>
<g>
</g>
<g>
</g>
<g>
</g>
<g>
</g>
<g>
</g>
<g>
</g>
<g>
</g>
<g>
</g>
<g>
</g>
<g>
</g>
<g>
</g>
<g>
</g>
<g>
</g>
<g>
</g>
</svg>
